<svg xmlns:dc="http://purl.org/dc/elements/1.1/" xmlns:cc="http://creativecommons.org/ns#" xmlns:rdf="http://www.w3.org/1999/02/22-rdf-syntax-ns#" xmlns:svg="http://www.w3.org/2000/svg" xmlns="http://www.w3.org/2000/svg" xmlns:sodipodi="http://sodipodi.sourceforge.net/DTD/sodipodi-0.dtd" xmlns:inkscape="http://www.inkscape.org/namespaces/inkscape" version="1.1" x="0px" y="0px" viewBox="0 0 100 100">
  <g transform="translate(0,-952.36218)">
    <path style="font-size:medium;font-style:normal;font-variant:normal;font-weight:normal;font-stretch:normal;text-indent:0;text-align:start;text-decoration:none;line-height:normal;letter-spacing:normal;word-spacing:normal;text-transform:none;direction:ltr;block-progression:tb;writing-mode:lr-tb;text-anchor:start;baseline-shift:baseline;opacity:1;color:#000000;fill:#000000;fill-opacity:1;stroke:none;stroke-width:7.09253644999999990;marker:none;visibility:visible;display:inline;overflow:visible;enable-background:accumulate;font-family:Sans;-inkscape-font-specification:Sans" d="M 50 6 C 25.723161 6 6 25.7232 6 50 C 6 74.2769 25.723161 94 50 94 C 74.276838 94 94 74.2769 94 50 C 94 25.7232 74.276838 6 50 6 z M 50 10 C 72.115079 10 90 27.88496 90 50 C 90 72.1151 72.115079 90 50 90 C 27.884921 90 10 72.1151 10 50 C 10 27.88496 27.884921 10 50 10 z M 71.1875 32.96875 A 2.0001995 2.0001995 0 0 0 69.8125 33.59375 L 44 60.125 L 32.6875 48.5 A 2.0001995 2.0001995 0 1 0 29.8125 51.28125 L 42.5625 64.375 A 2.0001995 2.0001995 0 0 0 45.4375 64.375 L 72.6875 36.375 A 2.0001995 2.0001995 0 0 0 71.1875 32.96875 z " transform="translate(0,952.36218)"/>
  </g>
</svg>
