<svg xmlns="http://www.w3.org/2000/svg" xmlns:xlink="http://www.w3.org/1999/xlink" version="1.1" x="0px" y="0px" viewBox="0 0 100 125" enable-background="new 0 0 100 100" xml:space="preserve">
  <style>
    @media (prefers-color-scheme: dark) {
      :root {
        filter: invert(100%);
      }
    }
  </style>

  <path d="M3.66,17.518c0.2,2.305,1.507,4.249,2.557,5.812c2.292,3.41,4.869,6.361,7.912,9.078c1.509,1.349,3.027,2.688,4.547,4.026  l0.756,0.659c1.103,0.949,2.144,1.844,2.91,3.31c0.172,0.393,0.76,2.604,0.819,4.092c0.026,0.713,0,2.534-0.031,4.642  c-0.097,6.705-0.14,12.633,0.211,16.154c-1.065,0.538-1.763,1.599-1.87,3.016c-0.26,3.357,2.513,5.919,4.538,7.789  c0.211,0.197,0.416,0.387,0.609,0.567c1.289,1.223,2.769,2.223,4.433,3.311c0.26,0.168,0.49,0.304,0.696,0.424  c0.033,0.019,0.063,0.035,0.094,0.053c0.002,0.074,0.002,0.17,0,0.287c-0.049,2.377,0.021,5.342,0.088,8.21  c0.041,1.745,0.079,3.433,0.088,4.876c0.006,1.023,0.74,1.901,1.747,2.088c3.038,0.567,10.685,0.813,13.916,0.813  c0.826,0,1.395-0.015,1.74-0.044c1.083-0.094,1.921-0.982,1.954-2.067c0.101-3.384,0.156-6.175,0.174-8.785  c0.002-0.269-0.013-0.596-0.031-0.954c-0.015-0.285-0.035-0.722-0.029-1.13c2.559,3.488,6.976,8.416,9.56,10.024  c0.345,0.215,0.737,0.323,1.13,0.323c0.336,0,0.672-0.079,0.98-0.237c0.122-0.063,0.237-0.138,0.342-0.222  c0.574-0.273,2.305-0.94,3.172-1.273c0.822-0.315,1.513-0.585,1.767-0.701l0.687-0.312c13.264-6.008,15.385-8.084,15.118-10.461  c-1.593-14.342-0.635-27.917,2.698-38.222c0.511-1.581,1.436-3.048,2.415-4.6c0.635-1.006,1.291-2.045,1.856-3.159  c1.896-3.72,3.293-7.606,4.149-11.548c0.499-2.298,0.823-4.667,0.962-7.042c0.077-1.25,0.079-2.603-0.438-3.985  c-0.88-2.356-2.529-3.021-3.757-3.162c-2.005-0.233-3.694,0.608-4.643,2.305c-1.272,2.273-2.253,4.658-3.199,6.965l-0.59,1.428  c-1.769,4.246-3.96,8.589-7.989,11.585c-2.498,1.86-5.25,3.19-8.047,4.191c-3.264-2.446-7.944-4.047-11.482-4.751  c-2.472-0.493-4.992-0.91-7.429-1.313c-6.048-1.002-12.304-2.039-18.023-4.28c-4.049-1.587-7.759-3.933-11.026-6.974  c-0.872-0.812-1.69-1.678-2.558-2.597c-0.479-0.507-0.957-1.014-1.446-1.511l-0.282-0.288c-0.458-0.47-0.975-1.001-1.595-1.465  c-3.393-2.521-5.907-1.937-7.419-1.003C4.487,12.636,3.49,15.522,3.66,17.518z M54.945,81.235c2.065-1.251,4.012-2.772,5.811-4.559  c1.081-1.082,1.74-2.414,1.909-3.86l0.032-0.225c0.094-0.652,0.35-2.566-1.293-3.663c2.818-6.26,5.021-16.236,4.331-19.357  c-0.188-0.855-0.604-1.486-1.233-1.876c-0.975-0.606-2.298-0.681-4.96-0.781c-2.63-0.098-6.605-0.248-8.404-1.452  c-0.224-0.197-0.392-0.924-0.383-1.467c0-0.017,0.004-0.036,0.001-0.054c0.006-0.168,0.03-0.318,0.077-0.42  c0.13-0.228,0.634-0.305,1.711-0.387l0.147-0.011c1.945-0.15,3.977-0.433,6.583-0.921c6.038-1.128,13.018-2.88,18.985-7.322  c4.859-3.614,7.381-8.563,9.383-13.372l0.599-1.448c0.94-2.291,1.829-4.454,2.977-6.503c0.049-0.089,0.086-0.125,0.096-0.132  c-0.001,0,0.084-0.035,0.32-0.01c0.022-0.005,0.119,0.081,0.241,0.411c0.225,0.599,0.233,1.326,0.178,2.231  c-0.129,2.16-0.422,4.308-0.874,6.391c-0.779,3.584-2.052,7.122-3.78,10.516c-0.479,0.938-1.053,1.851-1.663,2.817  c-1.078,1.708-2.192,3.475-2.868,5.567c-4.635,14.33-3.877,30.604-2.943,39.41c-0.761,0.729-3.413,2.545-12.566,6.691l-0.702,0.319  c-0.217,0.1-0.814,0.326-1.521,0.599c-1.159,0.445-2.056,0.79-2.75,1.086C60.269,87.698,56.938,83.949,54.945,81.235z   M25.868,69.382c0.92,0.343,2.689,1.239,5.798,3.588l0.16,0.12c1.742,1.303,3.751,2.356,5.662,2.965  c1.852,0.591,3.837,0.891,5.897,0.891c5.278,0,10.408-1.92,14.805-3.898c-0.11,0.209-0.261,0.408-0.452,0.599  c-2.431,2.412-5.159,4.274-8.107,5.525c-2.64,1.12-2.476,4.248-2.387,5.928c0.013,0.26,0.027,0.499,0.025,0.696  c-0.014,2.037-0.051,4.188-0.114,6.652c-3.105-0.021-7.933-0.21-10.884-0.509c-0.017-0.981-0.042-2.024-0.066-3.088  c-0.066-2.822-0.134-5.741-0.086-8.025c0.046-2.354-0.745-3.265-2.219-4.122c-0.152-0.089-0.322-0.187-0.512-0.311  c-1.759-1.148-2.891-1.941-3.826-2.83c-0.206-0.194-0.425-0.396-0.651-0.606C27.841,71.97,26.325,70.568,25.868,69.382z   M7.922,17.151c-0.055-0.626,0.406-1.817,0.73-2.06c0.224-0.136,0.84-0.516,2.609,0.8c0.348,0.259,0.707,0.627,1.087,1.019  l0.299,0.305c0.462,0.471,0.923,0.959,1.383,1.447c0.875,0.927,1.781,1.886,2.753,2.791c3.662,3.408,7.828,6.041,12.379,7.825  c6.139,2.407,12.618,3.48,18.884,4.518c2.404,0.398,4.89,0.81,7.294,1.289c2.061,0.41,4.511,1.176,6.675,2.183  c-1.2,0.277-2.382,0.517-3.528,0.73c-2.45,0.458-4.341,0.724-6.128,0.861l-0.142,0.011c-1.523,0.116-3.827,0.292-5.11,2.55  c-0.383,0.677-0.589,1.538-0.617,2.447c-0.44,3.255-0.898,7.67-1.169,10.389c-0.45-0.052-0.916-0.086-1.403-0.086  c-4.516,0-8.19,3.733-8.19,8.32c0,4.396,3.453,7.972,8.03,8.315c0.226,0.018,0.45,0.024,0.67,0.024c2.217,0,4.26-0.878,5.753-2.472  c1.617-1.729,2.487-4.202,2.328-6.618c-0.174-2.639-1.248-4.683-3.039-5.979c0.136-1.382,0.364-3.655,0.625-6.034  c2.735,1.204,6.317,1.349,9.287,1.459c0.708,0.026,1.581,0.059,2.228,0.113c-0.079,3.24-2.251,13.033-5.092,17.805  c-3.998,1.803-8.616,3.562-13.133,3.562c-1.618,0-3.166-0.231-4.6-0.688c-1.467-0.468-3.028-1.289-4.394-2.313l-0.147-0.111  c-2.682-2.025-4.839-3.354-6.589-4.058c-0.434-3.272-0.31-11.893-0.248-16.296c0.033-2.344,0.058-4.038,0.028-4.864  c-0.076-1.963-0.792-4.942-1.303-5.917c-1.145-2.188-2.677-3.506-3.908-4.566l-0.718-0.625c-1.513-1.333-3.024-2.667-4.528-4.01  c-2.774-2.476-5.119-5.164-7.173-8.216C8.953,19.731,8.028,18.354,7.922,17.151z M47.061,65.438  c-0.695,0.742-1.58,1.119-2.631,1.119c0,0,0,0-0.001,0c-0.113,0-0.229-0.004-0.347-0.013c-2.027-0.153-4.075-1.594-4.075-4.052  c0-2.229,1.755-4.043,3.913-4.043c3.625,0,4.215,1.91,4.323,3.574C48.324,63.263,47.871,64.571,47.061,65.438z M78.687,19.964  c0-5.675-4.617-10.293-10.293-10.293S58.101,14.29,58.101,19.965s4.617,10.293,10.293,10.293S78.687,25.64,78.687,19.964z   M74.41,19.964c0,3.317-2.699,6.017-6.017,6.017c-3.316,0-6.017-2.699-6.017-6.017s2.699-6.016,6.017-6.016  S74.41,16.647,74.41,19.964z M52.02,14.979c0.341-3.013-0.611-6.028-2.614-8.27c-1.951-2.184-4.731-3.436-7.626-3.436  c-6.094,0-11.646,5.465-11.646,11.466c0,6.038,4.913,10.95,10.95,10.95C46.721,25.689,51.319,21.186,52.02,14.979z M47.769,14.5  c-0.376,3.331-2.627,6.914-6.686,6.914c-3.68,0-6.672-2.994-6.672-6.673c0-3.627,3.649-7.189,7.368-7.189  c1.705,0,3.279,0.713,4.436,2.008C47.407,10.894,47.975,12.695,47.769,14.5z"/>
  <text x="0" y="115" fill="#000000" font-size="5px" font-weight="bold" font-family="'Helvetica Neue', Helvetica, Arial-Unicode, Arial, Sans-serif">Created by Chunk Icons</text>
  <text x="0" y="120" fill="#000000" font-size="5px" font-weight="bold" font-family="'Helvetica Neue', Helvetica, Arial-Unicode, Arial, Sans-serif">from the Noun Project</text>
</svg>
